<svg width="22" height="25" viewBox="0 0 22 25" fill="none" xmlns="http://www.w3.org/2000/svg">
<path d="M10.9995 12.4489C14.161 12.4489 16.724 9.886 16.724 6.72447C16.724 3.56293 14.161 1 10.9995 1C7.83796 1 5.27502 3.56293 5.27502 6.72447C5.27502 9.886 7.83796 12.4489 10.9995 12.4489Z" stroke="white" stroke-width="2"/>
<path d="M16.7245 14.739H17.1275C17.9645 14.7393 18.7726 15.0451 19.4 15.5992C20.0274 16.1532 20.4309 16.9172 20.5347 17.7478L20.9823 21.3244C21.0226 21.6466 20.9939 21.9737 20.8981 22.284C20.8023 22.5942 20.6416 22.8806 20.4266 23.124C20.2117 23.3674 19.9475 23.5623 19.6515 23.6958C19.3554 23.8292 19.0344 23.8982 18.7097 23.8982H3.29029C2.96557 23.8982 2.64456 23.8292 2.34855 23.6958C2.05254 23.5623 1.7883 23.3674 1.57338 23.124C1.35845 22.8806 1.19775 22.5942 1.10194 22.284C1.00613 21.9737 0.977408 21.6466 1.01767 21.3244L1.46418 17.7478C1.56802 16.9169 1.97184 16.1525 2.59972 15.5984C3.2276 15.0443 4.03627 14.7387 4.87367 14.739H5.27553" stroke="white" stroke-width="2" stroke-linecap="round" stroke-linejoin="round"/>
</svg>
